<svg width="253" height="60" viewBox="0 0 253 60" fill="none" xmlns="http://www.w3.org/2000/svg">
<rect x="0.5" y="0.5" width="249" height="59" rx="9.5" stroke="black" stroke-opacity="0.25"/>
<path d="M12.94 12.03C13.7 12.03 14.3567 12.1733 14.91 12.46C15.47 12.74 15.8967 13.1433 16.19 13.67C16.49 14.1967 16.64 14.8167 16.64 15.53C16.64 16.2433 16.49 16.8633 16.19 17.39C15.8967 17.91 15.47 18.31 14.91 18.59C14.3567 18.8633 13.7 19 12.94 19H10.77V12.03H12.94ZM12.94 18.25C13.84 18.25 14.5267 18.0133 15 17.54C15.4733 17.06 15.71 16.39 15.71 15.53C15.71 14.6633 15.47 13.9867 14.99 13.5C14.5167 13.0133 13.8333 12.77 12.94 12.77H11.68V18.25H12.94ZM20.2303 19.09C19.717 19.09 19.2503 18.9733 18.8303 18.74C18.417 18.5067 18.0903 18.1767 17.8503 17.75C17.617 17.3167 17.5003 16.8167 17.5003 16.25C17.5003 15.69 17.6203 15.1967 17.8603 14.77C18.107 14.3367 18.4403 14.0067 18.8603 13.78C19.2803 13.5467 19.7503 13.43 20.2703 13.43C20.7903 13.43 21.2603 13.5467 21.6803 13.78C22.1003 14.0067 22.4303 14.3333 22.6703 14.76C22.917 15.1867 23.0403 15.6833 23.0403 16.25C23.0403 16.8167 22.9136 17.3167 22.6603 17.75C22.4136 18.1767 22.077 18.5067 21.6503 18.74C21.2236 18.9733 20.7503 19.09 20.2303 19.09ZM20.2303 18.29C20.557 18.29 20.8636 18.2133 21.1503 18.06C21.437 17.9067 21.667 17.6767 21.8403 17.37C22.0203 17.0633 22.1103 16.69 22.1103 16.25C22.1103 15.81 22.0236 15.4367 21.8503 15.13C21.677 14.8233 21.4503 14.5967 21.1703 14.45C20.8903 14.2967 20.587 14.22 20.2603 14.22C19.927 14.22 19.6203 14.2967 19.3403 14.45C19.067 14.5967 18.847 14.8233 18.6803 15.13C18.5136 15.4367 18.4303 15.81 18.4303 16.25C18.4303 16.6967 18.5103 17.0733 18.6703 17.38C18.837 17.6867 19.057 17.9167 19.3303 18.07C19.6036 18.2167 19.9036 18.29 20.2303 18.29ZM26.9068 13.42C27.5735 13.42 28.1135 13.6233 28.5268 14.03C28.9401 14.43 29.1468 15.01 29.1468 15.77V19H28.2468V15.9C28.2468 15.3533 28.1101 14.9367 27.8368 14.65C27.5635 14.3567 27.1901 14.21 26.7168 14.21C26.2368 14.21 25.8535 14.36 25.5668 14.66C25.2868 14.96 25.1468 15.3967 25.1468 15.97V19H24.2368V13.52H25.1468V14.3C25.3268 14.02 25.5701 13.8033 25.8768 13.65C26.1901 13.4967 26.5335 13.42 26.9068 13.42ZM31.7433 14.27V17.5C31.7433 17.7667 31.7999 17.9567 31.9133 18.07C32.0266 18.1767 32.2233 18.23 32.5033 18.23H33.1733V19H32.3533C31.8466 19 31.4666 18.8833 31.2133 18.65C30.9599 18.4167 30.8333 18.0333 30.8333 17.5V14.27H30.1233V13.52H30.8333V12.14H31.7433V13.52H33.1733V14.27H31.7433ZM44.2419 13.52L42.5319 19H41.5919L40.2719 14.65L38.9519 19H38.0119L36.2919 13.52H37.2219L38.4819 18.12L39.8419 13.52H40.7719L42.1019 18.13L43.3419 13.52H44.2419ZM47.535 19.09C47.0217 19.09 46.555 18.9733 46.135 18.74C45.7217 18.5067 45.395 18.1767 45.155 17.75C44.9217 17.3167 44.805 16.8167 44.805 16.25C44.805 15.69 44.925 15.1967 45.165 14.77C45.4117 14.3367 45.745 14.0067 46.165 13.78C46.585 13.5467 47.055 13.43 47.575 13.43C48.095 13.43 48.565 13.5467 48.985 13.78C49.405 14.0067 49.735 14.3333 49.975 14.76C50.2217 15.1867 50.345 15.6833 50.345 16.25C50.345 16.8167 50.2183 17.3167 49.965 17.75C49.7183 18.1767 49.3817 18.5067 48.955 18.74C48.5283 18.9733 48.055 19.09 47.535 19.09ZM47.535 18.29C47.8617 18.29 48.1683 18.2133 48.455 18.06C48.7417 17.9067 48.9717 17.6767 49.145 17.37C49.325 17.0633 49.415 16.69 49.415 16.25C49.415 15.81 49.3283 15.4367 49.155 15.13C48.9817 14.8233 48.755 14.5967 48.475 14.45C48.195 14.2967 47.8917 14.22 47.565 14.22C47.2317 14.22 46.925 14.2967 46.645 14.45C46.3717 14.5967 46.1517 14.8233 45.985 15.13C45.8183 15.4367 45.735 15.81 45.735 16.25C45.735 16.6967 45.815 17.0733 45.975 17.38C46.1417 17.6867 46.3617 17.9167 46.635 18.07C46.9083 18.2167 47.2083 18.29 47.535 18.29ZM52.4515 14.41C52.6115 14.0967 52.8382 13.8533 53.1315 13.68C53.4315 13.5067 53.7948 13.42 54.2215 13.42V14.36H53.9815C52.9615 14.36 52.4515 14.9133 52.4515 16.02V19H51.5415V13.52H52.4515V14.41ZM56.182 14.41C56.342 14.0967 56.5686 13.8533 56.862 13.68C57.162 13.5067 57.5253 13.42 57.952 13.42V14.36H57.712C56.692 14.36 56.182 14.9133 56.182 16.02V19H55.272V13.52H56.182V14.41ZM63.7224 13.52L60.4224 21.58H59.4824L60.5624 18.94L58.3524 13.52H59.3624L61.0824 17.96L62.7824 13.52H63.7224ZM66.9632 16.24C66.9632 15.68 67.0765 15.19 67.3032 14.77C67.5299 14.3433 67.8399 14.0133 68.2332 13.78C68.6332 13.5467 69.0765 13.43 69.5632 13.43C70.0432 13.43 70.4599 13.5333 70.8132 13.74C71.1665 13.9467 71.4299 14.2067 71.6032 14.52V13.52H72.5232V19H71.6032V17.98C71.4232 18.3 71.1532 18.5667 70.7932 18.78C70.4399 18.9867 70.0265 19.09 69.5532 19.09C69.0665 19.09 68.6265 18.97 68.2332 18.73C67.8399 18.49 67.5299 18.1533 67.3032 17.72C67.0765 17.2867 66.9632 16.7933 66.9632 16.24ZM71.6032 16.25C71.6032 15.8367 71.5199 15.4767 71.3532 15.17C71.1865 14.8633 70.9599 14.63 70.6732 14.47C70.3932 14.3033 70.0832 14.22 69.7432 14.22C69.4032 14.22 69.0932 14.3 68.8132 14.46C68.5332 14.62 68.3099 14.8533 68.1432 15.16C67.9765 15.4667 67.8932 15.8267 67.8932 16.24C67.8932 16.66 67.9765 17.0267 68.1432 17.34C68.3099 17.6467 68.5332 17.8833 68.8132 18.05C69.0932 18.21 69.4032 18.29 69.7432 18.29C70.0832 18.29 70.3932 18.21 70.6732 18.05C70.9599 17.8833 71.1865 17.6467 71.3532 17.34C71.5199 17.0267 71.6032 16.6633 71.6032 16.25ZM74.971 14.54C75.1577 14.2133 75.431 13.9467 75.791 13.74C76.151 13.5333 76.561 13.43 77.021 13.43C77.5143 13.43 77.9577 13.5467 78.351 13.78C78.7443 14.0133 79.0543 14.3433 79.281 14.77C79.5077 15.19 79.621 15.68 79.621 16.24C79.621 16.7933 79.5077 17.2867 79.281 17.72C79.0543 18.1533 78.741 18.49 78.341 18.73C77.9477 18.97 77.5077 19.09 77.021 19.09C76.5477 19.09 76.131 18.9867 75.771 18.78C75.4177 18.5733 75.151 18.31 74.971 17.99V19H74.061V11.6H74.971V14.54ZM78.691 16.24C78.691 15.8267 78.6077 15.4667 78.441 15.16C78.2743 14.8533 78.0477 14.62 77.761 14.46C77.481 14.3 77.171 14.22 76.831 14.22C76.4977 14.22 76.1877 14.3033 75.901 14.47C75.621 14.63 75.3943 14.8667 75.221 15.18C75.0543 15.4867 74.971 15.8433 74.971 16.25C74.971 16.6633 75.0543 17.0267 75.221 17.34C75.3943 17.6467 75.621 17.8833 75.901 18.05C76.1877 18.21 76.4977 18.29 76.831 18.29C77.171 18.29 77.481 18.21 77.761 18.05C78.0477 17.8833 78.2743 17.6467 78.441 17.34C78.6077 17.0267 78.691 16.66 78.691 16.24ZM83.2088 19.09C82.6955 19.09 82.2288 18.9733 81.8088 18.74C81.3955 18.5067 81.0688 18.1767 80.8288 17.75C80.5955 17.3167 80.4788 16.8167 80.4788 16.25C80.4788 15.69 80.5988 15.1967 80.8388 14.77C81.0855 14.3367 81.4188 14.0067 81.8388 13.78C82.2588 13.5467 82.7288 13.43 83.2488 13.43C83.7688 13.43 84.2388 13.5467 84.6588 13.78C85.0788 14.0067 85.4088 14.3333 85.6488 14.76C85.8955 15.1867 86.0188 15.6833 86.0188 16.25C86.0188 16.8167 85.8922 17.3167 85.6388 17.75C85.3922 18.1767 85.0555 18.5067 84.6288 18.74C84.2022 18.9733 83.7288 19.09 83.2088 19.09ZM83.2088 18.29C83.5355 18.29 83.8422 18.2133 84.1288 18.06C84.4155 17.9067 84.6455 17.6767 84.8188 17.37C84.9988 17.0633 85.0888 16.69 85.0888 16.25C85.0888 15.81 85.0022 15.4367 84.8288 15.13C84.6555 14.8233 84.4288 14.5967 84.1488 14.45C83.8688 14.2967 83.5655 14.22 83.2388 14.22C82.9055 14.22 82.5988 14.2967 82.3188 14.45C82.0455 14.5967 81.8255 14.8233 81.6588 15.13C81.4922 15.4367 81.4088 15.81 81.4088 16.25C81.4088 16.6967 81.4888 17.0733 81.6488 17.38C81.8155 17.6867 82.0355 17.9167 82.3088 18.07C82.5822 18.2167 82.8822 18.29 83.2088 18.29ZM92.0753 13.52V19H91.1653V18.19C90.992 18.47 90.7486 18.69 90.4353 18.85C90.1286 19.0033 89.7886 19.08 89.4153 19.08C88.9886 19.08 88.6053 18.9933 88.2653 18.82C87.9253 18.64 87.6553 18.3733 87.4553 18.02C87.262 17.6667 87.1653 17.2367 87.1653 16.73V13.52H88.0653V16.61C88.0653 17.15 88.202 17.5667 88.4753 17.86C88.7486 18.1467 89.122 18.29 89.5953 18.29C90.082 18.29 90.4653 18.14 90.7453 17.84C91.0253 17.54 91.1653 17.1033 91.1653 16.53V13.52H92.0753ZM94.7218 14.27V17.5C94.7218 17.7667 94.7785 17.9567 94.8918 18.07C95.0051 18.1767 95.2018 18.23 95.4818 18.23H96.1518V19H95.3318C94.8251 19 94.4451 18.8833 94.1918 18.65C93.9385 18.4167 93.8118 18.0333 93.8118 17.5V14.27H93.1018V13.52H93.8118V12.14H94.7218V13.52H96.1518V14.27H94.7218ZM106.51 13.42C106.937 13.42 107.317 13.51 107.65 13.69C107.984 13.8633 108.247 14.1267 108.44 14.48C108.634 14.8333 108.73 15.2633 108.73 15.77V19H107.83V15.9C107.83 15.3533 107.694 14.9367 107.42 14.65C107.154 14.3567 106.79 14.21 106.33 14.21C105.857 14.21 105.48 14.3633 105.2 14.67C104.92 14.97 104.78 15.4067 104.78 15.98V19H103.88V15.9C103.88 15.3533 103.744 14.9367 103.47 14.65C103.204 14.3567 102.84 14.21 102.38 14.21C101.907 14.21 101.53 14.3633 101.25 14.67C100.97 14.97 100.83 15.4067 100.83 15.98V19H99.9204V13.52H100.83V14.31C101.01 14.0233 101.25 13.8033 101.55 13.65C101.857 13.4967 102.194 13.42 102.56 13.42C103.02 13.42 103.427 13.5233 103.78 13.73C104.134 13.9367 104.397 14.24 104.57 14.64C104.724 14.2533 104.977 13.9533 105.33 13.74C105.684 13.5267 106.077 13.42 106.51 13.42ZM114.943 13.52L111.643 21.58H110.703L111.783 18.94L109.573 13.52H110.583L112.303 17.96L114.003 13.52H114.943ZM118.184 16.24C118.184 15.68 118.297 15.19 118.524 14.77C118.751 14.3433 119.061 14.0133 119.454 13.78C119.854 13.5467 120.301 13.43 120.794 13.43C121.221 13.43 121.617 13.53 121.984 13.73C122.351 13.9233 122.631 14.18 122.824 14.5V11.6H123.744V19H122.824V17.97C122.644 18.2967 122.377 18.5667 122.024 18.78C121.671 18.9867 121.257 19.09 120.784 19.09C120.297 19.09 119.854 18.97 119.454 18.73C119.061 18.49 118.751 18.1533 118.524 17.72C118.297 17.2867 118.184 16.7933 118.184 16.24ZM122.824 16.25C122.824 15.8367 122.741 15.4767 122.574 15.17C122.407 14.8633 122.181 14.63 121.894 14.47C121.614 14.3033 121.304 14.22 120.964 14.22C120.624 14.22 120.314 14.3 120.034 14.46C119.754 14.62 119.531 14.8533 119.364 15.16C119.197 15.4667 119.114 15.8267 119.114 16.24C119.114 16.66 119.197 17.0267 119.364 17.34C119.531 17.6467 119.754 17.8833 120.034 18.05C120.314 18.21 120.624 18.29 120.964 18.29C121.304 18.29 121.614 18.21 121.894 18.05C122.181 17.8833 122.407 17.6467 122.574 17.34C122.741 17.0267 122.824 16.6633 122.824 16.25ZM127.672 19.09C127.158 19.09 126.692 18.9733 126.272 18.74C125.858 18.5067 125.532 18.1767 125.292 17.75C125.058 17.3167 124.942 16.8167 124.942 16.25C124.942 15.69 125.062 15.1967 125.302 14.77C125.548 14.3367 125.882 14.0067 126.302 13.78C126.722 13.5467 127.192 13.43 127.712 13.43C128.232 13.43 128.702 13.5467 129.122 13.78C129.542 14.0067 129.872 14.3333 130.112 14.76C130.358 15.1867 130.482 15.6833 130.482 16.25C130.482 16.8167 130.355 17.3167 130.102 17.75C129.855 18.1767 129.518 18.5067 129.092 18.74C128.665 18.9733 128.192 19.09 127.672 19.09ZM127.672 18.29C127.998 18.29 128.305 18.2133 128.592 18.06C128.878 17.9067 129.108 17.6767 129.282 17.37C129.462 17.0633 129.552 16.69 129.552 16.25C129.552 15.81 129.465 15.4367 129.292 15.13C129.118 14.8233 128.892 14.5967 128.612 14.45C128.332 14.2967 128.028 14.22 127.702 14.22C127.368 14.22 127.062 14.2967 126.782 14.45C126.508 14.5967 126.288 14.8233 126.122 15.13C125.955 15.4367 125.872 15.81 125.872 16.25C125.872 16.6967 125.952 17.0733 126.112 17.38C126.278 17.6867 126.498 17.9167 126.772 18.07C127.045 18.2167 127.345 18.29 127.672 18.29ZM133.938 13.43C134.412 13.43 134.825 13.5333 135.178 13.74C135.538 13.9467 135.805 14.2067 135.978 14.52V13.52H136.898V19.12C136.898 19.62 136.792 20.0633 136.578 20.45C136.365 20.8433 136.058 21.15 135.658 21.37C135.265 21.59 134.805 21.7 134.278 21.7C133.558 21.7 132.958 21.53 132.478 21.19C131.998 20.85 131.715 20.3867 131.628 19.8H132.528C132.628 20.1333 132.835 20.4 133.148 20.6C133.462 20.8067 133.838 20.91 134.278 20.91C134.778 20.91 135.185 20.7533 135.498 20.44C135.818 20.1267 135.978 19.6867 135.978 19.12V17.97C135.798 18.29 135.532 18.5567 135.178 18.77C134.825 18.9833 134.412 19.09 133.938 19.09C133.452 19.09 133.008 18.97 132.608 18.73C132.215 18.49 131.905 18.1533 131.678 17.72C131.452 17.2867 131.338 16.7933 131.338 16.24C131.338 15.68 131.452 15.19 131.678 14.77C131.905 14.3433 132.215 14.0133 132.608 13.78C133.008 13.5467 133.452 13.43 133.938 13.43ZM135.978 16.25C135.978 15.8367 135.895 15.4767 135.728 15.17C135.562 14.8633 135.335 14.63 135.048 14.47C134.768 14.3033 134.458 14.22 134.118 14.22C133.778 14.22 133.468 14.3 133.188 14.46C132.908 14.62 132.685 14.8533 132.518 15.16C132.352 15.4667 132.268 15.8267 132.268 16.24C132.268 16.66 132.352 17.0267 132.518 17.34C132.685 17.6467 132.908 17.8833 133.188 18.05C133.468 18.21 133.778 18.29 134.118 18.29C134.458 18.29 134.768 18.21 135.048 18.05C135.335 17.8833 135.562 17.6467 135.728 17.34C135.895 17.0267 135.978 16.6633 135.978 16.25ZM140.376 19.09C139.956 19.09 139.579 19.02 139.246 18.88C138.913 18.7333 138.649 18.5333 138.456 18.28C138.263 18.02 138.156 17.7233 138.136 17.39H139.076C139.103 17.6633 139.229 17.8867 139.456 18.06C139.689 18.2333 139.993 18.32 140.366 18.32C140.713 18.32 140.986 18.2433 141.186 18.09C141.386 17.9367 141.486 17.7433 141.486 17.51C141.486 17.27 141.379 17.0933 141.166 16.98C140.953 16.86 140.623 16.7433 140.176 16.63C139.769 16.5233 139.436 16.4167 139.176 16.31C138.923 16.1967 138.703 16.0333 138.516 15.82C138.336 15.6 138.246 15.3133 138.246 14.96C138.246 14.68 138.329 14.4233 138.496 14.19C138.663 13.9567 138.899 13.7733 139.206 13.64C139.513 13.5 139.863 13.43 140.256 13.43C140.863 13.43 141.353 13.5833 141.726 13.89C142.099 14.1967 142.299 14.6167 142.326 15.15H141.416C141.396 14.8633 141.279 14.6333 141.066 14.46C140.859 14.2867 140.579 14.2 140.226 14.2C139.899 14.2 139.639 14.27 139.446 14.41C139.253 14.55 139.156 14.7333 139.156 14.96C139.156 15.14 139.213 15.29 139.326 15.41C139.446 15.5233 139.593 15.6167 139.766 15.69C139.946 15.7567 140.193 15.8333 140.506 15.92C140.899 16.0267 141.219 16.1333 141.466 16.24C141.713 16.34 141.923 16.4933 142.096 16.7C142.276 16.9067 142.369 17.1767 142.376 17.51C142.376 17.81 142.293 18.08 142.126 18.32C141.959 18.56 141.723 18.75 141.416 18.89C141.116 19.0233 140.769 19.09 140.376 19.09ZM147.437 14.27V17.5C147.437 17.7667 147.493 17.9567 147.607 18.07C147.72 18.1767 147.917 18.23 148.197 18.23H148.867V19H148.047C147.54 19 147.16 18.8833 146.907 18.65C146.653 18.4167 146.527 18.0333 146.527 17.5V14.27H145.817V13.52H146.527V12.14H147.437V13.52H148.867V14.27H147.437ZM152.689 13.42C153.103 13.42 153.476 13.51 153.809 13.69C154.143 13.8633 154.403 14.1267 154.589 14.48C154.783 14.8333 154.879 15.2633 154.879 15.77V19H153.979V15.9C153.979 15.3533 153.843 14.9367 153.569 14.65C153.296 14.3567 152.923 14.21 152.449 14.21C151.969 14.21 151.586 14.36 151.299 14.66C151.019 14.96 150.879 15.3967 150.879 15.97V19H149.969V11.6H150.879V14.3C151.059 14.02 151.306 13.8033 151.619 13.65C151.939 13.4967 152.296 13.42 152.689 13.42ZM161.366 16.05C161.366 16.2233 161.356 16.4067 161.336 16.6H156.956C156.989 17.14 157.172 17.5633 157.506 17.87C157.846 18.17 158.256 18.32 158.736 18.32C159.129 18.32 159.456 18.23 159.716 18.05C159.982 17.8633 160.169 17.6167 160.276 17.31H161.256C161.109 17.8367 160.816 18.2667 160.376 18.6C159.936 18.9267 159.389 19.09 158.736 19.09C158.216 19.09 157.749 18.9733 157.336 18.74C156.929 18.5067 156.609 18.1767 156.376 17.75C156.142 17.3167 156.026 16.8167 156.026 16.25C156.026 15.6833 156.139 15.1867 156.366 14.76C156.592 14.3333 156.909 14.0067 157.316 13.78C157.729 13.5467 158.202 13.43 158.736 13.43C159.256 13.43 159.716 13.5433 160.116 13.77C160.516 13.9967 160.822 14.31 161.036 14.71C161.256 15.1033 161.366 15.55 161.366 16.05ZM160.426 15.86C160.426 15.5133 160.349 15.2167 160.196 14.97C160.042 14.7167 159.832 14.5267 159.566 14.4C159.306 14.2667 159.016 14.2 158.696 14.2C158.236 14.2 157.842 14.3467 157.516 14.64C157.196 14.9333 157.012 15.34 156.966 15.86H160.426ZM167.287 13.52L163.987 21.58H163.047L164.127 18.94L161.917 13.52H162.927L164.647 17.96L166.347 13.52H167.287ZM170.528 16.24C170.528 15.68 170.641 15.19 170.868 14.77C171.094 14.3433 171.404 14.0133 171.798 13.78C172.198 13.5467 172.644 13.43 173.138 13.43C173.564 13.43 173.961 13.53 174.328 13.73C174.694 13.9233 174.974 14.18 175.168 14.5V11.6H176.088V19H175.168V17.97C174.988 18.2967 174.721 18.5667 174.368 18.78C174.014 18.9867 173.601 19.09 173.128 19.09C172.641 19.09 172.198 18.97 171.798 18.73C171.404 18.49 171.094 18.1533 170.868 17.72C170.641 17.2867 170.528 16.7933 170.528 16.24ZM175.168 16.25C175.168 15.8367 175.084 15.4767 174.918 15.17C174.751 14.8633 174.524 14.63 174.238 14.47C173.958 14.3033 173.648 14.22 173.308 14.22C172.968 14.22 172.658 14.3 172.378 14.46C172.098 14.62 171.874 14.8533 171.708 15.16C171.541 15.4667 171.458 15.8267 171.458 16.24C171.458 16.66 171.541 17.0267 171.708 17.34C171.874 17.6467 172.098 17.8833 172.378 18.05C172.658 18.21 172.968 18.29 173.308 18.29C173.648 18.29 173.958 18.21 174.238 18.05C174.524 17.8833 174.751 17.6467 174.918 17.34C175.084 17.0267 175.168 16.6633 175.168 16.25ZM180.015 19.09C179.502 19.09 179.035 18.9733 178.615 18.74C178.202 18.5067 177.875 18.1767 177.635 17.75C177.402 17.3167 177.285 16.8167 177.285 16.25C177.285 15.69 177.405 15.1967 177.645 14.77C177.892 14.3367 178.225 14.0067 178.645 13.78C179.065 13.5467 179.535 13.43 180.055 13.43C180.575 13.43 181.045 13.5467 181.465 13.78C181.885 14.0067 182.215 14.3333 182.455 14.76C182.702 15.1867 182.825 15.6833 182.825 16.25C182.825 16.8167 182.699 17.3167 182.445 17.75C182.199 18.1767 181.862 18.5067 181.435 18.74C181.009 18.9733 180.535 19.09 180.015 19.09ZM180.015 18.29C180.342 18.29 180.649 18.2133 180.935 18.06C181.222 17.9067 181.452 17.6767 181.625 17.37C181.805 17.0633 181.895 16.69 181.895 16.25C181.895 15.81 181.809 15.4367 181.635 15.13C181.462 14.8233 181.235 14.5967 180.955 14.45C180.675 14.2967 180.372 14.22 180.045 14.22C179.712 14.22 179.405 14.2967 179.125 14.45C178.852 14.5967 178.632 14.8233 178.465 15.13C178.299 15.4367 178.215 15.81 178.215 16.25C178.215 16.6967 178.295 17.0733 178.455 17.38C178.622 17.6867 178.842 17.9167 179.115 18.07C179.389 18.2167 179.689 18.29 180.015 18.29ZM186.692 13.42C187.359 13.42 187.899 13.6233 188.312 14.03C188.725 14.43 188.932 15.01 188.932 15.77V19H188.032V15.9C188.032 15.3533 187.895 14.9367 187.622 14.65C187.349 14.3567 186.975 14.21 186.502 14.21C186.022 14.21 185.639 14.36 185.352 14.66C185.072 14.96 184.932 15.3967 184.932 15.97V19H184.022V13.52H184.932V14.3C185.112 14.02 185.355 13.8033 185.662 13.65C185.975 13.4967 186.319 13.42 186.692 13.42ZM191.528 14.27V17.5C191.528 17.7667 191.585 17.9567 191.698 18.07C191.812 18.1767 192.008 18.23 192.288 18.23H192.958V19H192.138C191.632 19 191.252 18.8833 190.998 18.65C190.745 18.4167 190.618 18.0333 190.618 17.5V14.27H189.908V13.52H190.618V12.14H191.528V13.52H192.958V14.27H191.528ZM197.637 14.54C197.824 14.2133 198.097 13.9467 198.457 13.74C198.817 13.5333 199.227 13.43 199.687 13.43C200.18 13.43 200.624 13.5467 201.017 13.78C201.41 14.0133 201.72 14.3433 201.947 14.77C202.174 15.19 202.287 15.68 202.287 16.24C202.287 16.7933 202.174 17.2867 201.947 17.72C201.72 18.1533 201.407 18.49 201.007 18.73C200.614 18.97 200.174 19.09 199.687 19.09C199.214 19.09 198.797 18.9867 198.437 18.78C198.084 18.5733 197.817 18.31 197.637 17.99V19H196.727V11.6H197.637V14.54ZM201.357 16.24C201.357 15.8267 201.274 15.4667 201.107 15.16C200.94 14.8533 200.714 14.62 200.427 14.46C200.147 14.3 199.837 14.22 199.497 14.22C199.164 14.22 198.854 14.3033 198.567 14.47C198.287 14.63 198.06 14.8667 197.887 15.18C197.72 15.4867 197.637 15.8433 197.637 16.25C197.637 16.6633 197.72 17.0267 197.887 17.34C198.06 17.6467 198.287 17.8833 198.567 18.05C198.854 18.21 199.164 18.29 199.497 18.29C199.837 18.29 200.147 18.21 200.427 18.05C200.714 17.8833 200.94 17.6467 201.107 17.34C201.274 17.0267 201.357 16.66 201.357 16.24ZM203.955 12.63C203.782 12.63 203.635 12.57 203.515 12.45C203.395 12.33 203.335 12.1833 203.335 12.01C203.335 11.8367 203.395 11.69 203.515 11.57C203.635 11.45 203.782 11.39 203.955 11.39C204.122 11.39 204.262 11.45 204.375 11.57C204.495 11.69 204.555 11.8367 204.555 12.01C204.555 12.1833 204.495 12.33 204.375 12.45C204.262 12.57 204.122 12.63 203.955 12.63ZM204.395 13.52V19H203.485V13.52H204.395ZM207.056 14.27V17.5C207.056 17.7667 207.112 17.9567 207.226 18.07C207.339 18.1767 207.536 18.23 207.816 18.23H208.486V19H207.666C207.159 19 206.779 18.8833 206.526 18.65C206.272 18.4167 206.146 18.0333 206.146 17.5V14.27H205.436V13.52H206.146V12.14H207.056V13.52H208.486V14.27H207.056ZM214.588 16.05C214.588 16.2233 214.578 16.4067 214.558 16.6H210.178C210.212 17.14 210.395 17.5633 210.728 17.87C211.068 18.17 211.478 18.32 211.958 18.32C212.352 18.32 212.678 18.23 212.938 18.05C213.205 17.8633 213.392 17.6167 213.498 17.31H214.478C214.332 17.8367 214.038 18.2667 213.598 18.6C213.158 18.9267 212.612 19.09 211.958 19.09C211.438 19.09 210.972 18.9733 210.558 18.74C210.152 18.5067 209.832 18.1767 209.598 17.75C209.365 17.3167 209.248 16.8167 209.248 16.25C209.248 15.6833 209.362 15.1867 209.588 14.76C209.815 14.3333 210.132 14.0067 210.538 13.78C210.952 13.5467 211.425 13.43 211.958 13.43C212.478 13.43 212.938 13.5433 213.338 13.77C213.738 13.9967 214.045 14.31 214.258 14.71C214.478 15.1033 214.588 15.55 214.588 16.05ZM213.648 15.86C213.648 15.5133 213.572 15.2167 213.418 14.97C213.265 14.7167 213.055 14.5267 212.788 14.4C212.528 14.2667 212.238 14.2 211.918 14.2C211.458 14.2 211.065 14.3467 210.738 14.64C210.418 14.9333 210.235 15.34 210.188 15.86H213.648ZM216.97 12.03L216.86 17.03H216.1L215.99 12.03H216.97ZM216.52 19.06C216.346 19.06 216.2 19 216.08 18.88C215.96 18.76 215.9 18.6133 215.9 18.44C215.9 18.2667 215.96 18.12 216.08 18C216.2 17.88 216.346 17.82 216.52 17.82C216.686 17.82 216.826 17.88 216.94 18C217.06 18.12 217.12 18.2667 217.12 18.44C217.12 18.6133 217.06 18.76 216.94 18.88C216.826 19 216.686 19.06 216.52 19.06Z" fill="black"/>
</svg>
