<svg width="168" height="35" viewBox="0 0 168 35" fill="none" xmlns="http://www.w3.org/2000/svg">
<path opacity="0.8" d="M0.852 12H2.328V8.568H5.304V7.356H2.328V5.124H5.52V3.912H0.852V12ZM10.3775 3.78C8.09747 3.78 6.53747 5.532 6.53747 8.016C6.53747 10.392 7.97747 12.132 10.2575 12.132C12.4895 12.132 14.1335 10.584 14.1335 7.872C14.1335 5.568 12.7415 3.78 10.3775 3.78ZM10.3415 4.968C11.8175 4.968 12.5735 6.408 12.5735 7.932C12.5735 9.624 11.7695 10.944 10.3415 10.944C8.92547 10.944 8.09747 9.636 8.09747 7.992C8.09747 6.324 8.87747 4.968 10.3415 4.968ZM15.4067 12H20.2067V10.764H16.8827V3.912H15.4067V12ZM21.3247 12H26.1247V10.764H22.8007V3.912H21.3247V12ZM30.1939 3.78C27.9139 3.78 26.3539 5.532 26.3539 8.016C26.3539 10.392 27.7939 12.132 30.0739 12.132C32.3059 12.132 33.9499 10.584 33.9499 7.872C33.9499 5.568 32.5579 3.78 30.1939 3.78ZM30.1579 4.968C31.6339 4.968 32.3899 6.408 32.3899 7.932C32.3899 9.624 31.5859 10.944 30.1579 10.944C28.7419 10.944 27.9139 9.636 27.9139 7.992C27.9139 6.324 28.6939 4.968 30.1579 4.968ZM38.0919 12L39.0279 8.196C39.2679 7.272 39.4239 6.492 39.5679 5.628H39.5919C39.6879 6.504 39.8319 7.272 40.0359 8.196L40.8759 12H42.4599L44.6319 3.912H43.1319L42.2919 7.572C42.0759 8.556 41.8839 9.48 41.7399 10.368H41.7159C41.5959 9.492 41.4279 8.592 41.2239 7.632L40.4199 3.912H38.8719L37.9959 7.572C37.7679 8.592 37.5399 9.552 37.4079 10.404H37.3839C37.2519 9.6 37.0599 8.568 36.8559 7.584L36.0879 3.912H34.5159L36.4959 12H38.0919ZM48.09 3.912V8.544C48.09 11.088 49.302 12.132 51.174 12.132C53.118 12.132 54.402 11.028 54.402 8.532V3.912H52.926V8.628C52.926 10.212 52.29 10.944 51.222 10.944C50.226 10.944 49.566 10.212 49.566 8.628V3.912H48.09ZM55.7342 11.616C56.1782 11.88 57.0662 12.12 57.9182 12.12C60.0062 12.12 60.9902 10.992 60.9902 9.696C60.9902 8.532 60.3062 7.824 58.9022 7.296C57.8222 6.876 57.3542 6.588 57.3542 5.964C57.3542 5.496 57.7622 4.992 58.6982 4.992C59.4542 4.992 60.0182 5.22 60.3062 5.376L60.6662 4.188C60.2462 3.972 59.5982 3.78 58.7222 3.78C56.9702 3.78 55.8662 4.788 55.8662 6.108C55.8662 7.272 56.7182 7.98 58.0502 8.46C59.0822 8.832 59.4902 9.192 59.4902 9.804C59.4902 10.464 58.9622 10.908 58.0142 10.908C57.2582 10.908 56.5382 10.668 56.0582 10.392L55.7342 11.616Z" fill="white"/>
<g clip-path="url(#clip0_324_5523)">
<path d="M101.013 21.333H89.6514C89.1071 21.333 88.667 21.7627 88.667 22.2939V33.7028C88.667 34.2341 89.1071 34.6663 89.6514 34.6663H101.013C101.558 34.6663 102 34.2341 102 33.7054V22.2939C102 21.7627 101.558 21.333 101.013 21.333ZM92.6227 32.695H90.6436V26.3304H92.6227V32.695ZM91.6331 25.4632C90.9977 25.4632 90.4847 24.9502 90.4847 24.3174C90.4847 23.6846 90.9977 23.1715 91.6331 23.1715C92.266 23.1715 92.779 23.6846 92.779 24.3174C92.779 24.9476 92.266 25.4632 91.6331 25.4632ZM100.029 32.695H98.0524V29.6012C98.0524 28.8643 98.0394 27.9137 97.0238 27.9137C95.9951 27.9137 95.8389 28.7184 95.8389 29.5492V32.695H93.8649V26.3304H95.7607V27.2002H95.7868C96.0498 26.7002 96.6956 26.1715 97.6566 26.1715C99.6592 26.1715 100.029 27.4893 100.029 29.2028V32.695V32.695Z" fill="white" fill-opacity="0.8"/>
</g>
<g clip-path="url(#clip1_324_5523)">
<path d="M66.0046 22.5345C67.7858 22.5345 67.9967 22.5423 68.6973 22.5736C69.3483 22.6022 69.6999 22.7116 69.9342 22.8027C70.2441 22.9225 70.4681 23.0684 70.6999 23.3001C70.9342 23.5345 71.0775 23.7559 71.1973 24.0658C71.2884 24.3001 71.3978 24.6543 71.4264 25.3027C71.4577 26.0059 71.4655 26.2168 71.4655 27.9954C71.4655 29.7767 71.4577 29.9876 71.4264 30.6882C71.3978 31.3392 71.2884 31.6908 71.1973 31.9251C71.0775 32.235 70.9316 32.459 70.6999 32.6908C70.4655 32.9251 70.2441 33.0684 69.9342 33.1882C69.6999 33.2793 69.3457 33.3887 68.6973 33.4173C67.9941 33.4486 67.7832 33.4564 66.0046 33.4564C64.2233 33.4564 64.0124 33.4486 63.3118 33.4173C62.6608 33.3887 62.3092 33.2793 62.0749 33.1882C61.765 33.0684 61.541 32.9225 61.3092 32.6908C61.0749 32.4564 60.9316 32.235 60.8118 31.9251C60.7207 31.6908 60.6113 31.3366 60.5827 30.6882C60.5514 29.985 60.5436 29.7741 60.5436 27.9954C60.5436 26.2142 60.5514 26.0033 60.5827 25.3027C60.6113 24.6517 60.7207 24.3001 60.8118 24.0658C60.9316 23.7559 61.0775 23.5319 61.3092 23.3001C61.5436 23.0658 61.765 22.9225 62.0749 22.8027C62.3092 22.7116 62.6634 22.6022 63.3118 22.5736C64.0124 22.5423 64.2233 22.5345 66.0046 22.5345ZM66.0046 21.334C64.1947 21.334 63.9681 21.3418 63.2572 21.373C62.5488 21.4043 62.0618 21.5189 61.64 21.6829C61.1999 21.8548 60.8275 22.0814 60.4577 22.4538C60.0853 22.8236 59.8587 23.196 59.6868 23.6335C59.5228 24.0579 59.4082 24.5423 59.377 25.2507C59.3457 25.9642 59.3379 26.1908 59.3379 28.0007C59.3379 29.8105 59.3457 30.0371 59.377 30.748C59.4082 31.4564 59.5228 31.9434 59.6868 32.3652C59.8587 32.8053 60.0853 33.1777 60.4577 33.5475C60.8275 33.9173 61.1999 34.1465 61.6374 34.3158C62.0618 34.4798 62.5462 34.5944 63.2546 34.6257C63.9655 34.6569 64.1921 34.6647 66.002 34.6647C67.8118 34.6647 68.0384 34.6569 68.7494 34.6257C69.4577 34.5944 69.9447 34.4798 70.3665 34.3158C70.804 34.1465 71.1764 33.9173 71.5462 33.5475C71.916 33.1777 72.1452 32.8053 72.3145 32.3678C72.4785 31.9434 72.5931 31.459 72.6244 30.7507C72.6556 30.0397 72.6634 29.8132 72.6634 28.0033C72.6634 26.1934 72.6556 25.9668 72.6244 25.2559C72.5931 24.5475 72.4785 24.0605 72.3145 23.6387C72.1504 23.196 71.9238 22.8236 71.5514 22.4538C71.1816 22.084 70.8092 21.8548 70.3717 21.6855C69.9473 21.5215 69.4629 21.4069 68.7546 21.3757C68.041 21.3418 67.8145 21.334 66.0046 21.334Z" fill="white" fill-opacity="0.8"/>
<path d="M66.0046 24.5762C64.1139 24.5762 62.5801 26.11 62.5801 28.0007C62.5801 29.8913 64.1139 31.4251 66.0046 31.4251C67.8952 31.4251 69.429 29.8913 69.429 28.0007C69.429 26.11 67.8952 24.5762 66.0046 24.5762ZM66.0046 30.222C64.778 30.222 63.7832 29.2272 63.7832 28.0007C63.7832 26.7741 64.778 25.7793 66.0046 25.7793C67.2311 25.7793 68.2259 26.7741 68.2259 28.0007C68.2259 29.2272 67.2311 30.222 66.0046 30.222Z" fill="white" fill-opacity="0.8"/>
<path d="M70.3636 24.4411C70.3636 24.8838 70.0042 25.2406 69.5641 25.2406C69.1214 25.2406 68.7646 24.8812 68.7646 24.4411C68.7646 23.9984 69.124 23.6416 69.5641 23.6416C70.0042 23.6416 70.3636 24.001 70.3636 24.4411Z" fill="white" fill-opacity="0.8"/>
</g>
<g clip-path="url(#clip2_324_5523)">
<path d="M34.1945 33.4167C39.2247 33.4167 41.9768 29.2483 41.9768 25.6344C41.9768 25.5173 41.9742 25.3975 41.969 25.2803C42.5044 24.8931 42.9664 24.4136 43.3333 23.8641C42.8347 24.086 42.3054 24.2308 41.7633 24.2938C42.334 23.9517 42.7614 23.4142 42.9661 22.7811C42.4292 23.0993 41.842 23.3238 41.2297 23.4449C40.8171 23.0065 40.2717 22.7163 39.6776 22.619C39.0835 22.5217 38.474 22.6229 37.9432 22.9068C37.4124 23.1907 36.9899 23.6416 36.741 24.1897C36.4922 24.7378 36.4308 25.3526 36.5664 25.9391C35.4792 25.8846 34.4155 25.6021 33.4444 25.1101C32.4733 24.6181 31.6165 23.9275 30.9294 23.0831C30.5802 23.6852 30.4734 24.3977 30.6306 25.0757C30.7878 25.7537 31.1973 26.3464 31.7758 26.7334C31.3415 26.7196 30.9167 26.6027 30.5365 26.3923V26.4261C30.5361 27.0579 30.7545 27.6704 31.1546 28.1594C31.5547 28.6484 32.1118 28.9837 32.7312 29.1084C32.3289 29.2185 31.9067 29.2345 31.4971 29.1553C31.6719 29.6987 32.012 30.1739 32.4699 30.5147C32.9278 30.8555 33.4806 31.0449 34.0513 31.0563C33.0825 31.8174 31.8857 32.2302 30.6536 32.2282C30.4352 32.2279 30.2169 32.2145 30 32.1881C31.2516 32.9911 32.7075 33.4175 34.1945 33.4167Z" fill="white" fill-opacity="0.8"/>
</g>
<g clip-path="url(#clip3_324_5523)">
<path d="M14.0003 28.0407C14.0003 24.3588 11.0156 21.374 7.33366 21.374C3.65176 21.374 0.666992 24.3588 0.666992 28.0407C0.666992 31.3682 3.10488 34.1262 6.29199 34.6264V29.9678H4.59928V28.0407H6.29199V26.5719C6.29199 24.9011 7.28731 23.9782 8.81009 23.9782C9.53926 23.9782 10.3024 24.1084 10.3024 24.1084V25.749H9.46178C8.63366 25.749 8.37533 26.263 8.37533 26.7907V28.0407H10.2243L9.92871 29.9678H8.37533V34.6264C11.5624 34.1262 14.0003 31.3682 14.0003 28.0407Z" fill="white" fill-opacity="0.8"/>
</g>
<defs>
<clipPath id="clip0_324_5523">
<rect width="13.3333" height="13.3333" fill="white" transform="translate(88.667 21.333)"/>
</clipPath>
<clipPath id="clip1_324_5523">
<rect width="13.3255" height="13.3307" fill="white" transform="translate(59.3379 21.334)"/>
</clipPath>
<clipPath id="clip2_324_5523">
<rect width="13.3333" height="12.8337" fill="white" transform="translate(30 21.583)"/>
</clipPath>
<clipPath id="clip3_324_5523">
<rect width="13.3333" height="13.2523" fill="white" transform="translate(0.666992 21.374)"/>
</clipPath>
</defs>
</svg>
